<svg xmlns="http://www.w3.org/2000/svg" viewBox="0 0 1440 320" width="1440" height="320">
  <defs>
    <linearGradient id="bg" x1="0%" y1="0%" x2="100%" y2="100%">
      <stop offset="0%" style="stop-color:#1a1a1a;stop-opacity:1" />
      <stop offset="50%" style="stop-color:#0d0d0d;stop-opacity:1" />
      <stop offset="100%" style="stop-color:#1a1a1a;stop-opacity:1" />
    </linearGradient>
    <linearGradient id="accent-line" x1="0%" y1="0%" x2="100%" y2="0%">
      <stop offset="0%" style="stop-color:#C74634;stop-opacity:0" />
      <stop offset="30%" style="stop-color:#C74634;stop-opacity:1" />
      <stop offset="70%" style="stop-color:#C74634;stop-opacity:1" />
      <stop offset="100%" style="stop-color:#C74634;stop-opacity:0" />
    </linearGradient>
    <linearGradient id="grid-fade" x1="0%" y1="0%" x2="0%" y2="100%">
      <stop offset="0%" style="stop-color:#ffffff;stop-opacity:0.04" />
      <stop offset="100%" style="stop-color:#ffffff;stop-opacity:0.01" />
    </linearGradient>
    <linearGradient id="glow" cx="50%" cy="50%" r="50%" fx="50%" fy="50%">
      <stop offset="0%" style="stop-color:#C74634;stop-opacity:0.15" />
      <stop offset="100%" style="stop-color:#C74634;stop-opacity:0" />
    </linearGradient>
    <radialGradient id="center-glow" cx="50%" cy="50%" r="40%">
      <stop offset="0%" style="stop-color:#C74634;stop-opacity:0.08" />
      <stop offset="100%" style="stop-color:#C74634;stop-opacity:0" />
    </radialGradient>
  </defs>

  <!-- Background -->
  <rect width="1440" height="320" fill="url(#bg)" />

  <!-- Subtle center glow -->
  <ellipse cx="720" cy="160" rx="500" ry="200" fill="url(#center-glow)" />

  <!-- Grid pattern - subtle perspective grid -->
  <g opacity="0.06" stroke="#ffffff" stroke-width="0.5" fill="none">
    <!-- Horizontal lines -->
    <line x1="0" y1="60" x2="1440" y2="60" />
    <line x1="0" y1="120" x2="1440" y2="120" />
    <line x1="0" y1="180" x2="1440" y2="180" />
    <line x1="0" y1="240" x2="1440" y2="240" />
    <line x1="0" y1="300" x2="1440" y2="300" />
    <!-- Vertical lines -->
    <line x1="120" y1="0" x2="120" y2="320" />
    <line x1="240" y1="0" x2="240" y2="320" />
    <line x1="360" y1="0" x2="360" y2="320" />
    <line x1="480" y1="0" x2="480" y2="320" />
    <line x1="600" y1="0" x2="600" y2="320" />
    <line x1="720" y1="0" x2="720" y2="320" />
    <line x1="840" y1="0" x2="840" y2="320" />
    <line x1="960" y1="0" x2="960" y2="320" />
    <line x1="1080" y1="0" x2="1080" y2="320" />
    <line x1="1200" y1="0" x2="1200" y2="320" />
    <line x1="1320" y1="0" x2="1320" y2="320" />
  </g>

  <!-- Decorative circuit/flow lines -->
  <g stroke="#C74634" stroke-width="1" fill="none" opacity="0.2">
    <!-- Left flow -->
    <path d="M 0 180 Q 150 140, 280 160 T 480 130" />
    <path d="M 0 200 Q 200 170, 350 190 T 520 150" />
    <!-- Right flow -->
    <path d="M 1440 140 Q 1300 170, 1150 150 T 950 180" />
    <path d="M 1440 120 Q 1250 150, 1100 130 T 900 160" />
  </g>

  <!-- Data visualization elements -->
  <!-- Bar chart icon - left side -->
  <g transform="translate(180, 100)" opacity="0.12">
    <rect x="0" y="60" width="12" height="40" rx="2" fill="#C74634" />
    <rect x="18" y="40" width="12" height="60" rx="2" fill="#C74634" />
    <rect x="36" y="20" width="12" height="80" rx="2" fill="#C74634" />
    <rect x="54" y="45" width="12" height="55" rx="2" fill="#C74634" />
    <rect x="72" y="30" width="12" height="70" rx="2" fill="#C74634" />
  </g>

  <!-- Pie chart icon - right side -->
  <g transform="translate(1180, 110)" opacity="0.12">
    <circle cx="40" cy="40" r="38" fill="none" stroke="#C74634" stroke-width="2" />
    <path d="M 40 40 L 40 2 A 38 38 0 0 1 72 58 Z" fill="#C74634" opacity="0.6" />
    <path d="M 40 40 L 72 58 A 38 38 0 0 1 20 70 Z" fill="#C74634" opacity="0.3" />
  </g>

  <!-- Line chart - left-center -->
  <g transform="translate(340, 130)" opacity="0.1">
    <polyline points="0,50 20,35 40,42 60,20 80,28 100,10 120,22 140,5" fill="none" stroke="#ffffff" stroke-width="2" />
    <circle cx="60" cy="20" r="3" fill="#C74634" />
    <circle cx="100" cy="10" r="3" fill="#C74634" />
    <circle cx="140" cy="5" r="3" fill="#C74634" />
  </g>

  <!-- Network nodes - right-center -->
  <g transform="translate(960, 90)" opacity="0.1">
    <circle cx="0" cy="30" r="5" fill="#C74634" />
    <circle cx="50" cy="10" r="5" fill="#C74634" />
    <circle cx="80" cy="50" r="5" fill="#C74634" />
    <circle cx="40" cy="60" r="5" fill="#C74634" />
    <circle cx="100" cy="25" r="5" fill="#C74634" />
    <line x1="0" y1="30" x2="50" y2="10" stroke="#C74634" stroke-width="1" />
    <line x1="50" y1="10" x2="80" y2="50" stroke="#C74634" stroke-width="1" />
    <line x1="50" y1="10" x2="100" y2="25" stroke="#C74634" stroke-width="1" />
    <line x1="0" y1="30" x2="40" y2="60" stroke="#C74634" stroke-width="1" />
    <line x1="40" y1="60" x2="80" y2="50" stroke="#C74634" stroke-width="1" />
  </g>

  <!-- Center text content -->
  <text x="720" y="130" text-anchor="middle" fill="#ffffff" font-family="Inter, -apple-system, BlinkMacSystemFont, sans-serif" font-size="36" font-weight="700" letter-spacing="-0.5" opacity="0.95">
    Enterprise Performance Management
  </text>
  <text x="720" y="170" text-anchor="middle" fill="rgba(255,255,255,0.6)" font-family="Inter, -apple-system, BlinkMacSystemFont, sans-serif" font-size="16" font-weight="400" letter-spacing="0.5">
    Financial Planning &amp; Analysis  |  Consolidation  |  Reporting  |  Close Management
  </text>

  <!-- Accent line under subtitle -->
  <rect x="520" y="190" width="400" height="2" rx="1" fill="url(#accent-line)" />

  <!-- KPI boxes -->
  <!-- Box 1 -->
  <g transform="translate(380, 215)">
    <rect width="130" height="65" rx="6" fill="rgba(255,255,255,0.04)" stroke="rgba(255,255,255,0.08)" stroke-width="1" />
    <text x="65" y="30" text-anchor="middle" fill="#C74634" font-family="Inter, sans-serif" font-size="20" font-weight="700">Budgeting</text>
    <text x="65" y="50" text-anchor="middle" fill="rgba(255,255,255,0.4)" font-family="Inter, sans-serif" font-size="11" font-weight="400">Plan &amp; Forecast</text>
  </g>

  <!-- Box 2 -->
  <g transform="translate(530, 215)">
    <rect width="130" height="65" rx="6" fill="rgba(255,255,255,0.04)" stroke="rgba(255,255,255,0.08)" stroke-width="1" />
    <text x="65" y="30" text-anchor="middle" fill="#C74634" font-family="Inter, sans-serif" font-size="20" font-weight="700">Analytics</text>
    <text x="65" y="50" text-anchor="middle" fill="rgba(255,255,255,0.4)" font-family="Inter, sans-serif" font-size="11" font-weight="400">Insights &amp; KPIs</text>
  </g>

  <!-- Box 3 -->
  <g transform="translate(680, 215)">
    <rect width="130" height="65" rx="6" fill="rgba(255,255,255,0.04)" stroke="rgba(255,255,255,0.08)" stroke-width="1" />
    <text x="65" y="30" text-anchor="middle" fill="#C74634" font-family="Inter, sans-serif" font-size="20" font-weight="700">Close</text>
    <text x="65" y="50" text-anchor="middle" fill="rgba(255,255,255,0.4)" font-family="Inter, sans-serif" font-size="11" font-weight="400">Reconcile &amp; Report</text>
  </g>

  <!-- Box 4 -->
  <g transform="translate(830, 215)">
    <rect width="130" height="65" rx="6" fill="rgba(255,255,255,0.04)" stroke="rgba(255,255,255,0.08)" stroke-width="1" />
    <text x="65" y="30" text-anchor="middle" fill="#C74634" font-family="Inter, sans-serif" font-size="20" font-weight="700">Narrative</text>
    <text x="65" y="50" text-anchor="middle" fill="rgba(255,255,255,0.4)" font-family="Inter, sans-serif" font-size="11" font-weight="400">Automate Reports</text>
  </g>

  <!-- Connecting dots between boxes -->
  <circle cx="515" cy="248" r="3" fill="#C74634" opacity="0.3" />
  <circle cx="665" cy="248" r="3" fill="#C74634" opacity="0.3" />
  <circle cx="815" cy="248" r="3" fill="#C74634" opacity="0.3" />

  <!-- Bottom accent line -->
  <rect x="0" y="317" width="1440" height="3" fill="#C74634" />
</svg>
